<?xml version="1.0" encoding="utf-8"?>
<!-- Uploaded to: SVG Repo, www.svgrepo.com, Generator: SVG Repo Mixer Tools -->
<svg width="800px" height="800px" viewBox="0 0 1024 1024" class="icon"  version="1.1" xmlns="http://www.w3.org/2000/svg"><path d="M779.8 875.2H246.2C120.7 875.2 19 773.5 19 648V538.6c0-213.9 173.4-387.3 387.3-387.3h213.4c213.9 0 387.3 173.4 387.3 387.3V648c0 125.5-101.7 227.2-227.2 227.2z" fill="#E2B97F" /><path d="M779.8 886.2H246.2c-63.6 0-123.4-24.8-168.4-69.8S8 711.6 8 648V538.6c0-53.8 10.5-105.9 31.3-155 20.1-47.4 48.8-90 85.4-126.6s79.2-65.3 126.6-85.4c49.1-20.8 101.3-31.3 155-31.3h213.4c53.8 0 105.9 10.5 155 31.3 47.4 20.1 90 48.8 126.6 85.4 36.6 36.6 65.3 79.2 85.4 126.6 20.8 49.1 31.3 101.3 31.3 155V648c0 63.6-24.8 123.4-69.8 168.4s-104.7 69.8-168.4 69.8zM406.3 162.3c-50.8 0-100.1 9.9-146.5 29.6-44.8 19-85.1 46.1-119.6 80.6-34.6 34.6-61.7 74.8-80.6 119.6C40 438.5 30 487.8 30 538.6V648c0 57.7 22.5 112 63.3 152.8 40.8 40.8 95.1 63.3 152.8 63.3h533.7c57.7 0 112-22.5 152.8-63.3C973.5 760 996 705.7 996 648V538.6c0-50.8-9.9-100.1-29.6-146.5-19-44.8-46.1-85.1-80.6-119.6s-74.8-61.7-119.6-80.6c-46.4-19.6-95.7-29.6-146.5-29.6H406.3z" fill="#C13105" /><path d="M343.3 534.6m-37.7 0a37.7 37.7 0 1 0 75.4 0 37.7 37.7 0 1 0-75.4 0Z" fill="#C13105" /><path d="M513 534.6m-37.7 0a37.7 37.7 0 1 0 75.4 0 37.7 37.7 0 1 0-75.4 0Z" fill="#C13105" /><path d="M682.7 534.6m-37.7 0a37.7 37.7 0 1 0 75.4 0 37.7 37.7 0 1 0-75.4 0Z" fill="#C13105" /><path d="M270.8 387.6m-37.7 0a37.7 37.7 0 1 0 75.4 0 37.7 37.7 0 1 0-75.4 0Z" fill="#C13105" /><path d="M432.3 387.6m-37.7 0a37.7 37.7 0 1 0 75.4 0 37.7 37.7 0 1 0-75.4 0Z" fill="#C13105" /><path d="M593.7 387.6m-37.7 0a37.7 37.7 0 1 0 75.4 0 37.7 37.7 0 1 0-75.4 0Z" fill="#C13105" /><path d="M755.2 387.6m-37.7 0a37.7 37.7 0 1 0 75.4 0 37.7 37.7 0 1 0-75.4 0Z" fill="#C13105" /><path d="M315.5 814.9c-79.3 0-154.3-34.6-205.8-95-3.9-4.6-3.4-11.6 1.2-15.5 4.6-3.9 11.6-3.4 15.5 1.2 47.3 55.5 116.2 87.3 189.1 87.3 6.1 0 11 4.9 11 11s-4.9 11-11 11zM701.2 814.9c-6.1 0-11-4.9-11-11s4.9-11 11-11c44.5 0 88.2-11.9 126.3-34.5 37-21.9 67.9-53.2 89.3-90.5 3-5.3 9.7-7.1 15-4.1 5.3 3 7.1 9.7 4.1 15-23.3 40.6-56.9 74.7-97.2 98.5-41.5 24.6-89 37.6-137.5 37.6z" fill="#C13105" /></svg>